<svg width="36" height="34" viewBox="0 0 36 34" fill="none" xmlns="http://www.w3.org/2000/svg">
<g clip-path="url(#clip0_11_3)">
<path d="M27.3 29.2003C27.3 30.4003 27.3 31.4003 27.3 32.4003C27.3 34.3003 27.1 34.4003 25.4 33.5003C24.6 34.3003 23.8 34.4003 23 33.5003C22.2 34.2003 21.4 34.5003 20.6 33.5003C19.8 34.0003 18.9 34.7003 18.1 33.4003C17.2 34.2003 16.4 34.4003 15.6 33.4003C14.8 34.2003 14 34.4003 13.2 33.4003C12.4 34.1003 11.5 34.5003 10.7 33.3003C10.5 33.4003 10.2 33.5003 10 33.7003C9.2 34.2003 8.8 34.0003 8.7 33.0003C8.7 31.8003 8.7 30.5003 8.7 29.0003C7.4 29.0003 6.2 29.0003 5 29.0003C1.5 29.0003 0 27.6003 0 24.0003C0 21.1003 0 18.1003 0 15.2003C0 13.2003 0.9 11.7003 2.8 10.9003C3.1 10.8003 3.6 10.5003 3.6 10.2003C3.6 9.10033 4.3 9.00033 5.2 8.90033C6.3 8.80033 7.4 8.70033 8.7 8.60033C8.7 6.80033 8.7 5.00033 8.7 3.20033C8.7 -0.0996733 8.4 0.00032653 12 0.00032653C14.9 0.00032653 17.8 0.00032653 20.7 0.00032653C21.4 0.00032653 22.1 0.400326 22.6 0.800326C23.8 1.80033 24.7 3.00033 25.9 4.00033C26.9 4.90033 27.3 5.90033 27.2 7.20033C27.1 7.60033 27.2 8.10033 27.2 8.60033C28.6 8.70033 29.8 8.80033 31.1 9.00033C31.9 9.10033 32.7 9.20033 32.6 10.3003C32.6 10.5003 33 10.8003 33.2 10.9003C34.9 11.6003 35.7 13.0003 35.7 14.7003C35.8 18.2003 35.8 21.7003 35.7 25.1003C35.7 27.4003 34.1 28.9003 31.7 29.0003C30.4 29.2003 29 29.2003 27.3 29.2003ZM27.3 27.9003C27.6 28.0003 27.7 28.0003 27.8 28.0003C29 28.0003 30.3 28.0003 31.5 28.0003C33.6 28.0003 34.6 26.9003 34.6 24.9003C34.6 22.1003 34.6 19.4003 34.6 16.6003C34.6 15.9003 34.6 15.2003 34.6 14.5003C34.5 13.4003 33.3 12.1003 32.5 12.2003C31.2 12.3003 31.6 13.5003 31.3 14.2003C31.3 14.3003 31.3 14.4003 31.3 14.4003C30.5 18.0003 27.4 19.9003 23.8 19.1003C20.9 18.4003 19.4 16.4003 18.6 13.8003C18.5 13.5003 18.2 13.2003 18 12.9003C17.8 13.2003 17.6 13.5003 17.5 13.8003C17.1 14.6003 16.9 15.4003 16.4 16.2003C15 18.6003 12.3 19.8003 9.6 19.3003C6.9 18.8003 5.3 17.1003 4.8 14.2003C4.7 13.9003 4.7 13.5003 4.7 13.2003C4.5 12.3003 4 12.0003 3.2 12.5003C2.1 13.2003 1.7 14.2003 1.7 15.5003C1.7 17.4003 1.7 19.2003 1.7 21.1003C1.7 22.6003 1.7 24.2003 1.8 25.7003C1.9 26.9003 2.5 28.0003 3.7 28.1003C5.4 28.3003 7.1 28.1003 8.9 28.1003C8.9 27.6003 8.9 27.2003 8.9 26.9003C8.9 25.2003 9.4 23.3003 7.2 22.4003C7 22.3003 7.1 21.8003 7 21.5003C7.4 21.6003 7.8 21.5003 8.1 21.7003C12.1 24.2003 16.6 25.0003 21.4 24.2003C23.8 23.8003 26.1 22.9003 28.1 21.5003C28.3 21.3003 28.7 21.4003 29.1 21.4003C29 21.7003 29 22.1003 28.8 22.3003C28.5 22.6003 28.1 22.7003 27.8 23.0003C27.6 23.2003 27.3 23.6003 27.3 23.9003C27.2 25.2003 27.3 26.5003 27.3 27.9003ZM10.1 24.2003C10.1 26.8003 10.1 29.4003 10.1 32.0003C11.1 32.0003 12 33.4003 13.1 32.2003C13.2 32.1003 13.5 32.4003 13.7 32.5003C14.9 32.7003 16 32.3003 17.2 32.6003L17.3 32.5003C18.5 32.4003 19.7 32.4003 20.9 32.3003C21 32.3003 21.1 32.5003 21.2 32.5003C22.3 32.5003 23.5 32.2003 24.6 32.5003L24.7 32.4003C25.1 32.2003 25.6 32.0003 26 31.9003C26 29.4003 26 26.7003 26 24.1003C18.3 26.2003 17.9 26.2003 10.1 24.2003ZM9.9 8.50033C12.5 9.10033 14.8 9.70033 17.1 10.2003C17.8 10.3003 18.6 10.2003 19.4 10.1003C21.3 9.80033 23.3 9.20033 25.2 9.00033C26.4 8.90033 26.1 8.20033 26.1 7.50033C26.2 6.70033 26.1 6.20033 25.1 6.30033C24.1 6.40033 23.1 6.30033 22.1 6.30033C21.1 6.40033 20.8 5.90033 20.8 5.00033C20.9 4.10033 20.9 3.10033 20.8 2.20033C20.8 1.90033 20.3 1.40033 20.1 1.40033C17 1.30033 13.8 1.30033 10.7 1.40033C10.4 1.40033 9.9 1.80033 9.9 2.10033C9.9 4.20033 9.9 6.40033 9.9 8.50033ZM10.8 10.1003V10.0003C9.8 10.2003 8.7 10.3003 7.8 10.7003C7.2 11.0003 6.4 11.7003 6.3 12.3003C6 14.2003 6.3 16.1003 8 17.3003C9.7 18.5003 11.6 18.4003 13.4 17.5003C15 16.7003 16 14.5003 15.7 12.6003C15.5 11.3003 14.4 10.6003 12.3 10.2003C11.8 10.1003 11.3 10.1003 10.8 10.1003ZM29.9 13.1003C29.9 11.7003 29.5 10.9003 28.1 10.5003C26.2 9.90033 24.2 9.80033 22.3 10.6003C21.6 10.9003 20.8 11.5003 20.6 12.2003C19.8 14.2003 21.4 17.0003 23.5 17.7003C27.1 18.9003 29.8 17.0003 29.9 13.1003ZM24.8 5.10033C23.8 4.20033 23 3.40033 22.1 2.60033C22.1 3.50033 22.1 4.30033 22.1 5.10033C23.1 5.10033 23.8 5.10033 24.8 5.10033Z" fill="white"/>
</g>
<defs>
<clipPath id="clip0_11_3">
<rect width="36" height="34" fill="white"/>
</clipPath>
</defs>
</svg>
