<svg width="36" height="36" viewBox="0 0 36 36" fill="none" xmlns="http://www.w3.org/2000/svg">
<path d="M29.1959 6.65212C29.0744 6.77364 28.9529 6.94578 28.9529 7.1078C28.9529 7.40145 29.2972 7.8065 29.9351 8.45456C32.5983 11.0165 33.9349 14.1454 33.9248 17.9224C33.9147 22.1045 32.5071 25.4664 29.7731 28.0586C29.1959 28.5751 28.963 28.9801 28.963 29.3244C28.963 29.4965 29.0845 29.6687 29.1959 29.8408C29.3073 29.9623 29.5402 30.0737 29.7123 30.0737C30.3402 30.0737 31.2312 29.3345 32.3856 27.8764C34.6336 25.1221 35.6462 22.0741 35.707 17.9326C35.7576 13.7809 34.4615 10.9658 31.9097 8.05965C30.9983 7.01666 30.2288 6.47998 29.7123 6.47998C29.5402 6.47998 29.3579 6.54074 29.1959 6.65212V6.65212Z" fill="white"/>
<path d="M21.1861 18.6717C20.1836 18.4185 24.2847 13.5782 17.0041 7.78613C17.0041 7.78613 17.9559 10.824 13.146 17.5983C8.32602 24.3625 15.2826 28.3927 15.2826 28.3927C15.2826 28.3927 12.022 26.651 15.8193 20.4538C16.4978 19.3299 17.3889 18.3172 18.4926 16.0186C18.4926 16.0186 19.4647 17.4059 18.9584 20.3931C18.1989 24.9194 22.2696 23.6233 22.3304 23.6841C23.7581 25.3549 21.1558 28.3015 20.9937 28.3927C20.8317 28.4838 28.4263 23.836 23.0291 16.8287C22.6645 17.1933 22.1886 18.9349 21.1861 18.6717V18.6717Z" fill="white"/>
<path d="M7.23247 6.66225C7.35398 6.77364 7.46536 6.94578 7.46536 7.11792C7.46536 7.41158 7.12108 7.8065 6.48313 8.45456C3.8301 11.0165 2.49347 14.1454 2.5036 17.9326C2.51372 22.1045 3.92124 25.4664 6.65528 28.0688C7.22234 28.5751 7.46536 28.9801 7.46536 29.3244C7.46536 29.4965 7.34386 29.6788 7.23247 29.8408C7.12108 29.9623 6.88817 30.0838 6.71603 30.0838C6.07809 30.0838 5.19712 29.3345 4.04275 27.8764C1.79476 25.1221 0.782155 22.0843 0.721399 17.9326C0.670769 13.7809 1.96691 10.9658 4.51867 8.05965C5.43002 7.02679 6.1996 6.47998 6.71603 6.47998C6.88817 6.47998 7.06033 6.54074 7.23247 6.66225V6.66225Z" fill="white"/>
</svg>
