<svg width="38" height="40" viewBox="0 0 38 40" fill="none" xmlns="http://www.w3.org/2000/svg">
<g clip-path="url(#clip0_5_47)">
<path d="M18.17 30.3268L30.4575 29.9346C30.4575 26.0131 30.719 21.5686 30.719 17.7778L37.7778 17.6471L37.2549 36.8628L18.0392 37.3856L18.17 30.3268Z" fill="#423EDC"/>
<path d="M9.6732 20.3922L10.0654 32.6797C13.9869 32.6797 18.4314 32.9412 22.2222 32.9412L22.3529 40L3.13726 39.4771L2.61438 20.2614L9.6732 20.3922Z" fill="#282E37"/>
<path d="M29.8039 19.6078L29.4118 7.32026C25.4902 7.32026 21.0458 7.05882 17.2549 7.05882L17.1242 0L36.3399 0.522876L36.8628 19.7386L29.8039 19.6078Z" fill="#282E37"/>
<path d="M19.6078 9.01961L7.45098 9.28105C7.45098 13.2026 7.18954 17.6471 7.18954 21.4379L0 21.6993L0.522876 2.48366L19.7386 1.96078L19.6078 9.01961Z" fill="#423EDC"/>
<path d="M23.5294 16.2091H21.1765H20.3921H19.7385C19.2157 16.2091 18.8235 16.3399 18.8235 16.8627L18.0392 20.915C17.9085 21.4379 17.9085 21.6993 17.9085 21.6993C17.9085 21.6993 17.9085 21.3072 17.7778 20.915L16.6013 16.3399H15.0327L13.8562 20.915C13.7255 21.4379 13.7255 21.6993 13.7255 21.6993C13.7255 21.6993 13.7255 21.3072 13.5948 20.915L12.8104 16.8627C12.6797 16.3399 12.4183 16.2091 11.8954 16.2091H10.3268V17.7778H10.5882C10.7189 17.7778 10.8497 17.7778 10.8497 18.0392L12.2876 23.9216H14.5098L15.4248 20.3921C15.5555 19.8693 15.5555 19.6078 15.5555 19.6078C15.5555 19.6078 15.5555 19.8693 15.6863 20.3921L16.6013 23.9216H18.8235L20.2614 18.0392C20.2614 17.9085 20.3921 17.7778 20.5229 17.7778H20.6536V23.0065C20.6536 23.5294 20.915 23.7908 21.4379 23.7908H23.5294C25.8823 23.7908 27.451 22.3529 27.451 19.8693C27.451 17.5163 25.8823 16.2091 23.5294 16.2091ZM23.3987 22.2222H23.1372C23.0065 22.2222 22.8758 22.0915 22.8758 21.9608V17.7778H23.3987C24.5751 17.7778 25.4902 18.5621 25.4902 20C25.4902 21.4379 24.7059 22.2222 23.3987 22.2222Z" fill="#282E37"/>
</g>
<defs>
<clipPath id="clip0_5_47">
<rect width="37.7778" height="40" fill="white"/>
</clipPath>
</defs>
</svg>
