<svg width="36" height="36" viewBox="0 0 36 36" fill="none" xmlns="http://www.w3.org/2000/svg">
<g clip-path="url(#clip0_59_901)">
<path fill-rule="evenodd" clip-rule="evenodd" d="M24.9 32.8001C24.9 34.9001 26.4 36.3001 28.6 36.3001C30.8 36.3001 32.2 34.9001 32.2 32.8001V26.8001H31V32.8001C31 34.3001 30.1 35.1001 28.6 35.1001C27.2 35.1001 26.2 34.3001 26.2 32.8001V26.8001H24.9V32.8001V32.8001ZM17.1 35.0001C17.9 35.8001 19 36.2001 20.2 36.2001C22.1 36.2001 23.2 35.0001 23.2 33.5001C23.2 30.5001 18.7 31.0001 18.7 29.0001C18.7 28.2001 19.4 27.7001 20.4 27.7001C21.1 27.7001 21.9 28.0001 22.5 28.5001L23.1 27.4001C22.4 26.8001 21.4 26.4001 20.5 26.4001C18.8 26.4001 17.4 27.4001 17.4 29.0001C17.4 31.9001 21.9 31.4001 21.9 33.5001C21.9 34.3001 21.2 34.8001 20.3 34.8001C19.4 34.8001 18.5 34.3001 17.9 33.8001L17.1 35.0001ZM9.89999 35.0001C10.7 35.8001 11.8 36.2001 13 36.2001C14.9 36.2001 16 35.0001 16 33.5001C16 30.5001 11.5 31.0001 11.5 29.0001C11.5 28.2001 12.2 27.7001 13.2 27.7001C13.9 27.7001 14.7 28.0001 15.3 28.5001L15.9 27.4001C15.2 26.8001 14.2 26.4001 13.3 26.4001C11.6 26.4001 10.2 27.4001 10.2 29.0001C10.2 31.9001 14.7 31.4001 14.7 33.5001C14.7 34.3001 14 34.8001 13.1 34.8001C12.2 34.8001 11.3 34.3001 10.7 33.8001L9.89999 35.0001ZM3.59999 31.2001V27.9001H5.09999C5.69999 27.9001 5.99999 28.0001 6.19999 28.1001C6.79999 28.4001 7.09999 28.9001 7.09999 29.6001C7.09999 30.6001 6.49999 31.3001 5.39999 31.3001H3.59999V31.2001ZM2.29999 36.1001H3.59999V32.4001H5.59999L7.59999 36.1001H9.09999L7.09999 32.5001C6.89999 32.2001 6.79999 32.0001 6.79999 32.0001C7.79999 31.7001 8.49999 30.6001 8.49999 29.4001C8.49999 28.2001 7.89999 27.4001 6.99999 27.0001C6.59999 26.8001 6.19999 26.7001 5.29999 26.7001H2.29999V36.1001Z" fill="white"/>
<path fill-rule="evenodd" clip-rule="evenodd" d="M10.4 11.2C10.1 11.6 9.9 12.1 9.7 12.5C9.5 13 9.5 13.5 9.5 14C9.5 14.7 9.5 15.5 9.5 16.2C9.5 16.5 9.5 16.9001 9.5 17.2001C9.5 17.8001 9.5 18.4 9.5 19C9.5 19.6 9.5 20.2 9.5 20.8C9.5 21.1 9.5 23.3001 9.5 24.2001H8.3C8.3 23.2001 8.3 21.1 8.3 20.8C8.3 20.2 8.3 19.6 8.3 19C8.3 18.4 8.3 17.8001 8.3 17.2001C8.3 16.9001 8.3 16.6 8.3 16.2C8.2 14.9 8.2 13.4 8.6 12.1C8.8 11.5 9.1 11 9.4 10.5C9.8 9.90005 10.2 9.50005 10.6 9.10005C10.1 8.40005 9.8 7.50005 9.8 6.60005C9.8 4.10005 11.8 2.10005 14.3 2.10005C15 2.10005 15.7 2.30005 16.3 2.50005C16.7 1.90005 17.1 1.40005 17.7 1.00005C17.7 1.00005 17.7 1.00005 17.8 1.00005C18.5 0.600049 19.3 0.300049 20.2 0.300049C22.7 0.300049 24.7 2.30005 24.7 4.80005C24.7 6.20005 24.1 7.40005 23.1 8.20005L23.2 8.30005C23.9 9.00005 24.5 9.60005 25.1 10.4C25.4 10.9 25.7 11.5 25.9 12C26.3 13.3 26.2 14.8 26.2 16.1C26.2 16.4 26.2 16.7 26.2 17.1C26.2 17.7 26.2 18.3 26.2 18.9C26.2 19.5 26.2 20.1001 26.2 20.7001C26.2 21.0001 26.2 23.7 26.2 24V24.2001H24.9V23.9C24.9 23.6 24.9 20.9 24.9 20.6C24.9 20 24.9 19.4 24.9 18.8C24.9 18.2 24.9 17.6 24.9 17C24.9 16.7 24.9 16.3 24.9 16C24.9 15.3 25 14.5 24.9 13.8C24.9 13.3 24.8 12.8 24.7 12.3C24.5 11.8 24.3 11.4 24 11C23.5 10.2 22.9 9.70005 22.3 9.10005C22.2 9.00005 22.1 8.90005 22 8.80005C21.4 9.10005 20.8 9.20005 20.1 9.20005C19.4 9.20005 18.7 9.00005 18.1 8.80005C17.9 9.10005 17.7 9.40005 17.5 9.60005C19 10.1 20 11.5 20 13C20 14 19.6 15 18.9 15.6C19.2 16 19.6 16.3 19.9 16.8C20 16.9 20.1 17.0001 20.1 17.2001C20.3 17.6001 20.5 18 20.7 18.4V18.5C20.8 19 20.9 19.4 20.9 19.9C20.9 20 20.9 20.2 20.9 20.3L20.8 24H19.5C19.5 22.8 19.6 21.4001 19.5 20.2001C19.5 19.3001 19.4 18.4 18.7 17.3C18.4 16.8 18.1 16.5 17.7 16.1C17.3 16.3 16.8 16.4 16.3 16.4C15.9 16.4 15.5 16.3 15.1 16.2C15 16.3 14.9 16.5 14.7 16.6C14.4 16.9 14.2 17.2 14 17.6C13.5 18.6 13.4 19.5 13.3 20.3C13.3 21.5 13.3 22.9 13.3 24.1H12L11.9 20.4C11.9 19.8 11.9 19.3 12 18.8C12.1 18.2 12.4 17.6 12.7 17.1C12.8 17 12.9 16.8001 13 16.7001C13.3 16.3001 13.5 16 13.8 15.7C13 15 12.5 14.1 12.5 12.9C12.5 12.1 12.8 11.4 13.2 10.8C12.5 10.6 11.8 10.3 11.2 9.80005C11.1 10.4 10.7 10.7 10.4 11.2ZM19.8 8.00005C19.9 8.00005 20.1 8.00005 20.2 8.00005C20.9 8.00005 21.5 7.80005 22 7.40005C22.9 6.80005 23.4 5.80005 23.4 4.70005C23.4 2.90005 21.9 1.40005 20.1 1.40005C19.5 1.40005 18.9 1.60005 18.4 1.90005C18 2.20005 17.6 2.60005 17.3 3.00005C18.2 3.80005 18.8 5.00005 18.8 6.40005C18.8 6.80005 18.7 7.20005 18.7 7.60005C19.1 7.80005 19.4 7.90005 19.8 8.00005ZM14.4 3.20005C16.2 3.20005 17.7 4.70005 17.7 6.50005C17.7 7.90005 16.8 9.10005 15.6 9.50005C15.5 9.50005 15.4 9.60005 15.2 9.60005C15 9.70005 14.7 9.70005 14.4 9.70005C12.6 9.70005 11.1 8.20005 11.1 6.40005C11.1 4.70005 12.6 3.20005 14.4 3.20005ZM16.4 10.7C15.1 10.7 14 11.8 14 13.1C14 14.4 15.1 15.5 16.4 15.5C17.7 15.5 18.8 14.4 18.8 13.1C18.8 11.7 17.7 10.7 16.4 10.7Z" fill="white"/>
</g>
<defs>
<clipPath id="clip0_59_901">
<rect width="36" height="36" fill="white"/>
</clipPath>
</defs>
</svg>
