<svg width="50" height="34" viewBox="0 0 50 34" fill="none" xmlns="http://www.w3.org/2000/svg">
<path d="M8.56366 15.5878C8.43939 16.304 7.90504 16.7733 7.15943 16.7733H5.54395L5.92918 14.4763H8.05416C8.47667 14.6369 8.65065 15.0444 8.56366 15.5878ZM12.1799 20.4656H10.8626H10.8378C10.5395 20.4656 10.3531 20.3421 10.2413 20.1075L9.75663 18.922C10.8999 18.2675 11.6704 17.1314 11.9437 15.5878C12.329 13.1797 11.136 11.7225 8.88676 11.5743C8.82462 11.5743 8.73764 11.5496 8.65065 11.5496H1.10759C0.598089 11.5496 0.386833 11.7225 0.299846 12.2659L0.0264563 13.7848C-0.0605313 14.3158 0.0513099 14.501 0.598089 14.501H2.74792L1.45554 22.3921C1.36855 22.8984 1.51767 23.0713 2.05202 23.0713H3.90361C4.41311 23.0713 4.62437 22.8984 4.71136 22.3921L5.15872 19.6259H6.62508L7.37069 21.5029C7.73107 22.2809 8.38969 23.2318 9.94303 23.3182H11.7449C12.2544 23.3182 12.4657 23.1454 12.5775 22.639L12.8509 21.1819C12.8385 20.6385 12.6894 20.4656 12.1799 20.4656Z" fill="white"/>
<path d="M35.5671 11.5372H27.937C27.4275 11.5372 27.2163 11.7101 27.1293 12.2164L26.8932 13.6736C26.8062 14.1799 26.9553 14.3528 27.4648 14.3528H29.7389L28.4217 22.3303C28.3347 22.8366 28.4838 23.0095 28.9933 23.0095H30.8449C31.3544 23.0095 31.5656 22.8366 31.6526 22.3303L32.9699 14.3528H35.0948C35.6043 14.3528 35.8156 14.1799 35.9026 13.6736L36.1387 12.2164C36.2257 11.7225 36.0766 11.5372 35.5671 11.5372" fill="white"/>
<path d="M49.3732 15.847H47.3104L47.9069 12.2164C47.9939 11.7101 47.8447 11.5372 47.3352 11.5372H45.4836C44.9741 11.5372 44.7629 11.7101 44.6759 12.2164L44.0794 15.7853H40.9106L41.5071 12.2164C41.5941 11.7101 41.4449 11.5372 40.9354 11.5372H39.0839C38.5744 11.5372 38.3631 11.7101 38.2761 12.2164L36.5985 22.3673C36.5115 22.8736 36.6606 23.0465 37.195 23.0465H39.0466C39.5561 23.0465 39.7673 22.8736 39.8543 22.3673L40.4508 18.6503H43.6196L43.0231 22.3673C42.9362 22.8736 43.0853 23.0465 43.5948 23.0465H45.4464C45.9559 23.0465 46.1671 22.8736 46.2541 22.3673L46.8506 18.7985H48.8886C49.3981 18.7985 49.6093 18.6256 49.7212 18.0822L49.9946 16.5633C50.0319 16.0323 49.8827 15.847 49.3732 15.847" fill="white"/>
<path d="M22.1585 15.5259C22.1585 15.5012 22.1337 15.4395 22.0716 15.353C22.0467 15.2913 22.0094 15.2295 21.9473 15.1431C21.9224 15.1184 21.8852 15.0567 21.8603 15.0196C21.8354 14.9826 21.7982 14.9332 21.736 14.8961C21.5869 14.7232 21.3757 14.5133 21.0774 14.3651C20.804 14.2169 20.4436 14.0934 20.0584 14.0934C19.8472 14.0934 19.6732 14.1181 19.4246 14.1552C19.3625 14.1799 19.3004 14.1799 19.2755 14.2169L19.1885 14.2416C19.1637 14.2416 19.1637 14.2663 19.1264 14.2663C19.1016 14.291 19.0394 14.291 19.0021 14.3281C19.0021 14.3281 18.94 14.3528 18.9152 14.3898L18.7909 14.4516C18.5796 14.575 18.3684 14.7232 18.1571 14.8961C18.0701 14.9826 17.9459 15.069 17.8837 15.1925L17.7595 15.3654L17.6352 15.5383C17.6103 15.6 17.5482 15.6618 17.5109 15.7112C17.4736 15.7606 17.4488 15.8346 17.4239 15.9211C17.3618 16.0693 17.2997 16.1928 17.25 16.341C17.1257 16.6373 17.1008 16.9337 17.076 17.2301L17.0511 17.4647V17.6993C17.0511 17.7858 17.0511 17.8475 17.076 17.934C17.076 18.0204 17.076 18.0822 17.1008 18.1686L17.1257 18.3785C17.1257 18.4032 17.1505 18.4403 17.1505 18.465L17.1754 18.5514L17.2003 18.6379C17.2003 18.6379 17.2003 18.6626 17.2251 18.6996L17.25 18.7861L17.3121 18.9342L17.337 19.0207L17.3618 19.0454V19.0701C17.3618 19.0454 17.3867 19.1565 17.337 19.0083C17.4612 19.28 17.6352 19.5146 17.8216 19.7246C17.9956 19.9345 18.2068 20.0827 18.4554 20.2062C18.9027 20.4408 19.4122 20.5396 19.9217 20.4161C19.9839 20.4161 20.046 20.3914 20.0957 20.3914C20.1578 20.3667 20.22 20.3667 20.2697 20.3297H20.3318L20.3567 20.305L20.4188 20.2803L20.4809 20.2556H20.5058L20.5679 20.2309C20.6549 20.1691 20.7419 20.1444 20.8413 20.0827L20.8662 20.058H20.891C20.8662 20.0827 20.9531 20.0333 20.8289 20.0827L20.8537 20.058L20.9407 19.9963C21.0029 19.9716 21.065 19.9345 21.0898 19.8728C21.152 19.8481 21.1768 19.7863 21.239 19.7493C21.6242 19.4159 21.8976 18.9713 22.1088 18.5638C22.2828 18.1439 22.4071 17.6993 22.4444 17.3412C22.4692 17.1683 22.4444 16.9831 22.4444 16.8102C22.4195 16.662 22.4195 16.5138 22.3822 16.3656C22.3822 16.3039 22.3574 16.2422 22.3574 16.1928C22.3574 16.1681 22.3325 16.1063 22.3325 16.0693C22.3325 16.0322 22.3077 16.0075 22.3077 15.9828L22.2828 15.9211C22.2828 15.8964 22.258 15.8593 22.258 15.8346C22.2207 15.6494 22.1585 15.5506 22.1585 15.5259L22.1585 15.5259ZM25.0043 14.3404C25.0043 14.3404 25.0291 14.4269 25.1285 14.6368C25.1285 14.6615 25.1534 14.6985 25.1534 14.7232C25.1534 14.7479 25.1783 14.7479 25.1783 14.8097C25.2031 14.8961 25.2404 14.9826 25.2652 15.106C25.2901 15.1925 25.3274 15.316 25.3522 15.4395C25.3771 15.563 25.4144 15.6741 25.4144 15.7976C25.4765 16.0322 25.4765 16.3039 25.5014 16.6003C25.5014 16.8967 25.5262 17.2301 25.4765 17.5512C25.4144 18.2303 25.2404 18.9836 24.9049 19.7493C24.5445 20.5273 24.035 21.2929 23.2894 21.9474C23.2024 22.0338 23.1154 22.0956 22.9911 22.182C22.9042 22.2685 22.7799 22.3302 22.6929 22.4167L22.5438 22.5402L22.4568 22.6019L22.3325 22.6883C22.2455 22.7501 22.1585 22.7748 22.0591 22.8365L21.997 22.8612C21.9721 22.8612 21.9349 22.8859 21.91 22.923L21.6988 23.0094L21.4875 23.0959L21.3632 23.1206L21.2762 23.1453C21.152 23.17 21.0029 23.2317 20.8537 23.2687C20.7046 23.2934 20.5803 23.3305 20.4312 23.3552C19.288 23.5651 18.008 23.3799 16.9269 22.8242C16.3925 22.5278 15.9079 22.145 15.4854 21.7251C15.0628 21.2806 14.7646 20.7742 14.4912 20.2679L14.3421 19.9098L14.3172 19.8234C14.3172 19.7987 14.2924 19.7616 14.2924 19.7369L14.2303 19.5023L14.1681 19.2677C14.1433 19.1812 14.106 19.1195 14.106 19.033L14.019 18.6132C13.9941 18.465 13.9941 18.3415 13.9569 18.1933C13.9196 18.0451 13.932 17.9216 13.932 17.7734V17.3536L13.9569 16.9337C14.019 16.4027 14.106 15.8346 14.3172 15.3283C14.4042 15.0567 14.5285 14.822 14.6155 14.5874C14.6776 14.4639 14.7398 14.3528 14.7895 14.2293C14.8516 14.1058 14.9137 13.9946 15.0007 13.8711C15.0628 13.7477 15.1498 13.6612 15.212 13.5377C15.299 13.4142 15.3859 13.3278 15.4481 13.2413C15.5972 13.0314 15.8085 12.8585 15.9824 12.6733C16.3677 12.3152 16.7902 12.0188 17.2375 11.7471L17.3618 11.6854C17.3867 11.6607 17.4239 11.6607 17.5109 11.5989C17.6352 11.5372 17.7843 11.4754 17.8962 11.426C17.9583 11.4013 18.0204 11.3643 18.0701 11.3396L18.2441 11.2779C18.3684 11.2532 18.4802 11.2161 18.6045 11.1544C19.0891 11.0309 19.5613 10.9815 20.046 11.0062C20.978 11.0309 21.8479 11.2779 22.5065 11.6607C23.1651 12.0188 23.6498 12.4634 23.9977 12.8462C24.0847 12.9326 24.1468 13.0561 24.2338 13.1426C24.2959 13.229 24.3581 13.3154 24.4078 13.4142C24.5321 13.5871 24.619 13.7106 24.6812 13.8588L24.8924 14.2416L25.0043 14.3404L25.0043 14.3404Z" fill="white"/>
</svg>
