<svg width="36" height="36" viewBox="0 0 36 36" fill="none" xmlns="http://www.w3.org/2000/svg">
<g clip-path="url(#clip0_57_885)">
<path d="M27.1602 10.8565L17.9058 5.52251L8.67017 10.8565V5.52251L17.9058 0.188477L27.1602 5.52251V10.8565Z" fill="white"/>
<path d="M8.67017 15.3423H13.5141V27.1035C13.5141 30.1381 15.7759 31.6271 17.9246 31.6271C20.0733 31.6271 22.3351 30.1004 22.3351 27.0658V15.3423H27.1791V27.3863C27.1791 30.1946 26.2932 32.3433 24.5403 33.8323C22.7874 35.3213 20.5822 36.0376 17.8869 36.0376C15.2105 36.0376 13.0052 35.3213 11.2901 33.8323C9.57488 32.3433 8.68901 30.27 8.68901 27.5182C8.67017 27.5182 8.67017 15.3423 8.67017 15.3423Z" fill="white"/>
</g>
<defs>
<clipPath id="clip0_57_885">
<rect width="36" height="36" fill="white"/>
</clipPath>
</defs>
</svg>
